HIERARCHY
ROOT Hips
{
  OFFSET 0 89.5177 0.535
  CHANNELS 6 Xposition Yposition Zposition Zrotation Xrotation Yrotation
  JOINT Spine
  {
    OFFSET 12.0259 -0.162855 1.69034e-005
    CHANNELS 3 Zrotation Xrotation Yrotation
    JOINT Spine1
    {
      OFFSET 15.3169 -0.0121922 0
      CHANNELS 3 Zrotation Xrotation Yrotation
      JOINT Spine2
      {
        OFFSET 15.3176 -0.0121908 0
        CHANNELS 3 Zrotation Xrotation Yrotation
        JOINT Neck
        {
          OFFSET 19.9142 1.56338 0
          CHANNELS 3 Zrotation Xrotation Yrotation
          JOINT Head
          {
            OFFSET 6.92651 0 0
            CHANNELS 3 Zrotation Xrotation Yrotation
            End Site
            {
              OFFSET 20.7666 0 0
            }
          }
          JOINT LeftShoulder
          {
            OFFSET -6.20654 0.708824 7.28219
            CHANNELS 3 Zrotation Xrotation Yrotation
            JOINT LeftArm
            {
              OFFSET 14.108 0 -1.52588e-005
              CHANNELS 3 Zrotation Xrotation Yrotation
              JOINT LeftForeArm
              {
                OFFSET 28.5802 0 0
                CHANNELS 3 Zrotation Xrotation Yrotation
                JOINT LeftHand
                {
                  OFFSET 27.092 0 0
                  CHANNELS 3 Zrotation Xrotation Yrotation
                  End Site
                  {
                    OFFSET 9.55928 -0.186424 0.145352
                  }
                }
              }
            }
          }
          JOINT RightShoulder
          {
            OFFSET -6.20654 0.708866 -7.28218
            CHANNELS 3 Zrotation Xrotation Yrotation
            JOINT RightArm
            {
              OFFSET 14.108 0 1.52588e-005
              CHANNELS 3 Zrotation Xrotation Yrotation
              JOINT RightForeArm
              {
                OFFSET 28.5802 0 0
                CHANNELS 3 Zrotation Xrotation Yrotation
                JOINT RightHand
                {
                  OFFSET 27.092 0 0
                  CHANNELS 3 Zrotation Xrotation Yrotation
                  End Site
                  {
                    OFFSET 9.55929 -0.186417 -0.145354
                  }
                }
              }
            }
          }
        }
      }
    }
  }
  JOINT LeftUpLeg
  {
    OFFSET 0.005 -0.535 8.837
    CHANNELS 3 Zrotation Xrotation Yrotation
    JOINT LeftLeg
    {
      OFFSET 39.9035 0 0
      CHANNELS 3 Zrotation Xrotation Yrotation
      JOINT LeftFoot
      {
        OFFSET 39.6689 0 0
        CHANNELS 3 Zrotation Xrotation Yrotation
        JOINT LeftToe
        {
          OFFSET 10.1624 13.6296 0
          CHANNELS 3 Zrotation Xrotation Yrotation
          End Site
          {
            OFFSET 8.38147 0 0
          }
        }
      }
    }
  }
  JOINT RightUpLeg
  {
    OFFSET 0.005 -0.535 -8.837
    CHANNELS 3 Zrotation Xrotation Yrotation
    JOINT RightLeg
    {
      OFFSET 39.9035 0 0
      CHANNELS 3 Zrotation Xrotation Yrotation
      JOINT RightFoot
      {
        OFFSET 39.6689 0 0
        CHANNELS 3 Zrotation Xrotation Yrotation
        JOINT RightToe
        {
          OFFSET 10.1624 13.6296 0
          CHANNELS 3 Zrotation Xrotation Yrotation
          End Site
          {
            OFFSET 8.38147 0 0
          }
        }
      }
    }
  }
}
MOTION
Frames:	6
Frame Time:	0.0333333
139.948 88.0884 -15.1364 92.088 9.12871 2.97089 -1.65594 2.33917 -1.77551 -3.24262 4.72808 -3.48682 -3.24262 4.72808 -3.48683 -8.30987e-012 -9.0191e-006 -5.27751e-005 19.9347 1.32363 -5.23711 179.511 1.53866 -72.3599 -5.6958 -9.2736 63.5665 -79.2679 -7.95139e-016 9.54166e-015 -56.1358 32.0377 26.6702 179.664 -1.17307 74.0224 137.882 5.00028 -135.765 -3.90397e-006 6.36111e-015 -3.97569e-015 -101.843 2.35162 -7.77401 -19.4624 3.21035 173.221 -29.6968 1.59028e-015 -2.38542e-015 13.936 3.59009 -6.95991 90 0 7.95139e-016 -30.0601 -14.6647 168.765 -78.5411 3.18056e-015 3.18056e-015 -12.282 -0.633257 1.3716 90 1.59028e-015 -1.98785e-015 
136.199 89.1297 -15.1243 91.0271 12.9005 2.34722 -1.62574 1.7804 -1.62151 -3.20277 3.60588 -3.19398 -3.20277 3.60588 -3.19399 -8.3051e-012 -9.0191e-006 -5.27751e-005 22.6016 1.48108 -4.48405 179.258 2.35039 -72.4675 -3.57014 -6.83574 66.18 -72.154 -1.3418e-015 -3.18055e-015 -53.4142 32.7084 20.6572 179.901 -0.324898 73.0263 136.46 9.31829 -133.577 -3.90871e-006 -3.18055e-015 -7.15625e-015 -99.5998 1.68737 -3.86911 -15.6813 -1.40696 173.24 -27.8407 -1.59028e-015 -0 12.9685 3.44609 -6.73011 90 6.36111e-015 -7.95139e-016 -31.1867 -14.1576 169.524 -74.568 -7.95139e-016 -3.97569e-016 -10.5889 -1.51962 3.11375 90 0 -1.98785e-016 
132.809 89.971 -15.3684 91.1636 14.956 1.33548 -1.57204 1.40175 -1.55321 -3.10692 2.84555 -3.06859 -3.10692 2.84555 -3.0686 -8.30748e-012 -9.0191e-006 -5.27751e-005 23.0733 2.83763 -3.7594 178.996 3.02815 -71.6591 1.8783 -2.63891 66.1328 -73.0189 -1.98785e-015 -3.18055e-015 -52.871 29.441 12.0796 -179.956 0.132891 71.9848 133.387 14.2316 -130.933 -3.91158e-006 3.18055e-015 -7.95139e-016 -97.3239 1.27353 -1.81682 -13.3698 -3.5975 174.529 -26.693 -1.59028e-015 -1.59028e-015 12.5547 3.78407 -7.47163 90 -3.18055e-015 2.38542e-015 -32.8755 -12.4859 170.961 -68.0545 1.36664e-016 9.93923e-017 -10.9486 -2.56346 5.14634 90 -1.59028e-015 -1.19271e-015 
129.622 90.4387 -15.6514 91.5868 16.0469 0.950215 -1.37596 1.23665 -1.63257 -2.71709 2.51213 -3.23593 -2.71709 2.51213 -3.23594 -8.30907e-012 -9.0191e-006 -5.27751e-005 20.857 4.08579 -2.94689 179.233 2.20359 -70.7994 9.21866 1.55044 63.3771 -81.0153 7.95139e-016 3.18055e-015 -53.8215 26.1591 5.08282 -179.968 0.0942278 71.2061 130.6 18.8837 -127.464 -3.91254e-006 -3.18055e-015 1.19271e-015 -95.7008 1.14247 -1.94246 -11.5978 -4.74147 175.473 -26.1094 -4.77083e-015 -1.59028e-015 12.6535 4.16008 -8.29658 90 1.59028e-015 -7.95139e-016 -34.1447 -10.1138 171.614 -59.6852 3.97569e-016 -0 -9.38962 -4.13171 8.22466 90 0 7.95139e-016 
126.505 90.5328 -16.0204 92.1959 16.8994 1.01514 -1.16509 1.4313 -1.69201 -2.28847 2.89656 -3.35597 -2.28847 2.89656 -3.35598 -8.30669e-012 -9.0191e-006 -5.27751e-005 17.8294 3.34208 -2.23693 179.951 0.14372 -71.0205 16.3278 4.10695 60.1881 -87.8855 0 -0 -50.7756 22.22 -0.823354 179.985 -0.0455085 71.1183 128.872 22.7978 -123.265 -2.45285e-006 7.95139e-016 9.93923e-016 -94.2787 1.05545 -4.06337 -10.4291 -5.02376 176.166 -26.3618 -1.59028e-015 -0 13.5207 4.79043 -9.64972 90 1.59028e-015 -3.18055e-015 -34.3268 -7.72546 171.561 -49.5147 0 7.95139e-016 -6.90451 -5.72974 11.4376 90 -3.18055e-015 1.59028e-015 
123.464 90.4937 -16.4369 92.5258 18.557 1.29453 -1.03071 1.77258 -1.71459 -2.00933 3.57541 -3.39928 -2.00933 3.57541 -3.39929 -8.30907e-012 -9.0191e-006 -5.27751e-005 16.3804 1.62189 -2.25879 -179.372 -1.93713 -72.0304 21.3132 5.13168 57.1688 -89.3469 1.59028e-015 -3.18055e-015 -49.2429 19.4119 -2.83071 -179.917 0.242676 71.1477 122.056 20.4994 -117.955 -6.06597 4.96962e-017 4.16205e-015 -86.8277 0.904073 -6.59526 -9.4663 -5.94389 176.571 -27.1077 0 -1.59028e-015 14.3417 5.30618 -10.7848 90 -1.59028e-015 -7.95139e-016 -32.6505 -5.37936 170.772 -37.5708 1.59028e-015 2.38542e-015 -7.33523 -7.95583 16.0578 90 1.59028e-015 -3.18055e-015 
